# xmcd
#
# Track frame offsets:
# 150
# 16773
# 34290
# 53926
# 72771
# 88595
# 105278
# 122299
# 137542
# 151500
#
# Disc length: 2253 seconds
#
#
# Revision: 0
# Processed by: cddbd v1.5.2PL0 Copyright (c) Steve Scherf et al.
# Submitted via: FreeRIP 2.96 
#
DISCID=6a08cb0a
DTITLE=The Nashville Country Tribute Band - The Music of Brad Paisley
DYEAR=2007
DGENRE=Country
TTITLE0=The World
TTITLE1=Alcohol
TTITLE2=Whisket Lullaby
TTITLE3=Two People Fell In Love
TTITLE4=Mud On The Tires
TTITLE5=Little Moments
TTITLE6=Celebrity
TTITLE7=I'm Gonna Miss Her (The Fishing Song)
TTITLE8=Wrapped Around
TTITLE9=We Danced
EXTD=
EXTT0=
EXTT1=
EXTT2=
EXTT3=
EXTT4=
EXTT5=
EXTT6=
EXTT7=
EXTT8=
EXTT9=
PLAYORDER=
